<svg width="44" height="44" viewBox="0 0 44 44" fill="none" xmlns="http://www.w3.org/2000/svg">
<rect x="0.75" y="0.75" width="42.5" height="42.5" rx="21.25" fill="white" stroke="#242424" stroke-width="1.5"/>
<g clip-path="url(#clip0_86_1350)">
<path d="M21.2551 14.9338L21.2499 26.5123C21.2499 26.7112 21.3289 26.9019 21.4695 27.0426C21.6102 27.1833 21.8009 27.2623 21.9999 27.2623C22.1988 27.2623 22.3895 27.1833 22.5302 27.0426C22.6708 26.9019 22.7499 26.7112 22.7499 26.5123L22.7551 14.9465L24.9391 17.1313C25.0798 17.2719 25.2705 17.3509 25.4694 17.3509C25.6682 17.3509 25.859 17.2719 25.9996 17.1313C26.1402 16.9906 26.2192 16.7999 26.2192 16.601C26.2192 16.4021 26.1402 16.2114 25.9996 16.0708L23.5914 13.6595C23.3824 13.4504 23.1343 13.2846 22.8612 13.1714C22.5882 13.0582 22.2955 13 21.9999 13C21.7043 13 21.4116 13.0582 21.1385 13.1714C20.8654 13.2846 20.6173 13.4504 20.4084 13.6595L18.0001 16.0685C17.8595 16.2092 17.7805 16.3999 17.7805 16.5988C17.7805 16.7976 17.8595 16.9884 18.0001 17.129C18.1408 17.2696 18.3315 17.3486 18.5304 17.3486C18.7292 17.3486 18.92 17.2696 19.0606 17.129L21.2551 14.9338Z" fill="#242424"/>
<path d="M29.5 25.75V28.75C29.5 28.9489 29.421 29.1397 29.2803 29.2803C29.1397 29.421 28.9489 29.5 28.75 29.5H15.25C15.0511 29.5 14.8603 29.421 14.7197 29.2803C14.579 29.1397 14.5 28.9489 14.5 28.75V25.75C14.5 25.5511 14.421 25.3603 14.2803 25.2197C14.1397 25.079 13.9489 25 13.75 25C13.5511 25 13.3603 25.079 13.2197 25.2197C13.079 25.3603 13 25.5511 13 25.75V28.75C13 29.3467 13.2371 29.919 13.659 30.341C14.081 30.7629 14.6533 31 15.25 31H28.75C29.3467 31 29.919 30.7629 30.341 30.341C30.7629 29.919 31 29.3467 31 28.75V25.75C31 25.5511 30.921 25.3603 30.7803 25.2197C30.6397 25.079 30.4489 25 30.25 25C30.0511 25 29.8603 25.079 29.7197 25.2197C29.579 25.3603 29.5 25.5511 29.5 25.75Z" fill="#242424"/>
</g>
<defs>
<clipPath id="clip0_86_1350">
<rect width="18" height="18" fill="white" transform="translate(13 13)"/>
</clipPath>
</defs>
</svg>
