<svg width="111" height="24" viewBox="0 0 111 24" fill="none" xmlns="http://www.w3.org/2000/svg">
<path d="M0.392789 18V1.90568H3.38174V15.241H12.8544V18H0.392789ZM19.5673 18.2299C18.571 18.2299 17.6973 18.0077 16.9462 17.5632C16.1952 17.1033 15.6127 16.4442 15.1988 15.5859C14.785 14.7122 14.5781 13.6775 14.5781 12.4819V5.88328H17.4061V11.7232C17.4061 12.5816 17.521 13.302 17.7509 13.8845C17.9809 14.4516 18.3411 14.8884 18.8316 15.195C19.3221 15.4862 19.9428 15.6318 20.6939 15.6318C21.2151 15.6318 21.6979 15.5552 22.1424 15.4019C22.6022 15.2333 23.0008 14.9957 23.338 14.6892C23.6905 14.3673 23.9664 13.9917 24.1657 13.5626C24.3649 13.1334 24.4646 12.6506 24.4646 12.1141V5.88328H27.2926V18H24.5336L24.4876 15.4709L24.9934 15.195C24.7941 15.7161 24.4492 16.2066 23.9588 16.6665C23.4683 17.1263 22.8475 17.5018 22.0964 17.7931C21.3607 18.0843 20.5176 18.2299 19.5673 18.2299ZM35.9921 18.2299C34.6433 18.2299 33.44 17.954 32.3824 17.4022C31.3248 16.8504 30.4817 16.0993 29.8533 15.149C29.2402 14.1987 28.9336 13.1257 28.9336 11.9301C28.9336 10.7192 29.2402 9.64628 29.8533 8.71128C30.4664 7.76095 31.3018 7.00988 32.3594 6.45807C33.417 5.90627 34.605 5.63036 35.9232 5.63036C37.226 5.63036 38.4216 5.82963 39.5099 6.22815C40.6135 6.62668 41.4949 7.18615 42.154 7.90656L40.5675 9.99882C40.2303 9.64628 39.8088 9.33206 39.303 9.05616C38.8125 8.78025 38.2913 8.558 37.7395 8.38939C37.203 8.22078 36.6589 8.13648 36.1071 8.13648C35.2641 8.13648 34.513 8.30509 33.8539 8.6423C33.2101 8.96419 32.7043 9.4087 32.3364 9.97583C31.9839 10.543 31.8076 11.1944 31.8076 11.9301C31.8076 12.6659 31.9915 13.3173 32.3594 13.8845C32.7426 14.4516 33.2638 14.9038 33.9229 15.241C34.582 15.5629 35.31 15.7238 36.1071 15.7238C36.7662 15.7238 37.364 15.6548 37.9005 15.5169C38.4523 15.3636 38.9504 15.1643 39.3949 14.9191C39.8394 14.6738 40.238 14.4133 40.5905 14.1374L42.154 16.2066C41.4029 16.7738 40.5062 17.2566 39.4639 17.6551C38.4369 18.0383 37.2797 18.2299 35.9921 18.2299ZM46.2406 14.7352L45.9187 12.0911L53.3911 5.88328H57.2537L46.2406 14.7352ZM43.8264 18V0.986004H46.5165V18H43.8264ZM53.7819 18L48.2179 11.7232L50.1262 10.0218L57.2997 18H53.7819ZM60.5658 23.2881L63.7157 17.3562L63.6467 19.1726L56.6572 5.88328H59.968L63.4398 12.9648C63.777 13.6085 64.0759 14.214 64.3365 14.7811C64.6124 15.3483 64.8116 15.8847 64.9342 16.3906L64.3595 16.4595C64.5434 15.9997 64.758 15.4709 65.0032 14.8731C65.2638 14.2753 65.555 13.6392 65.8769 12.9648L69.1188 5.88328H72.3836L66.1298 18.092L63.5317 23.2881H60.5658ZM73.4217 18V5.88328H76.2037L76.2497 8.9182L75.4909 8.80325C75.6595 8.43537 75.9125 8.0675 76.2497 7.69963C76.5869 7.33176 76.9931 7.00221 77.4682 6.71098C77.9587 6.40442 78.5029 6.15918 79.1007 5.97524C79.7138 5.77598 80.3729 5.67635 81.078 5.67635C81.8444 5.67635 82.5341 5.79897 83.1472 6.04422C83.7757 6.27414 84.2968 6.64201 84.7107 7.14783C85.1245 7.65365 85.3928 8.30509 85.5154 9.10214L84.7797 8.96419L84.9636 8.59632C85.1629 8.27443 85.4464 7.94488 85.8143 7.60767C86.1822 7.25512 86.6037 6.9409 87.0788 6.665C87.5693 6.37377 88.0982 6.13619 88.6653 5.95225C89.2477 5.76832 89.8532 5.67635 90.4816 5.67635C91.6772 5.67635 92.6276 5.8986 93.3326 6.34311C94.0531 6.77229 94.5742 7.37775 94.8961 8.15947C95.218 8.9412 95.3789 9.83022 95.3789 10.8265V18H92.5279V11.1714C92.5279 10.5583 92.4283 10.0295 92.229 9.58497C92.0451 9.12513 91.7462 8.78025 91.3323 8.55033C90.9338 8.30509 90.4203 8.18246 89.7919 8.18246C89.2401 8.18246 88.7189 8.27443 88.2284 8.45837C87.7379 8.62697 87.3088 8.87222 86.9409 9.19411C86.573 9.50067 86.2895 9.86854 86.0902 10.2977C85.8909 10.7116 85.7913 11.1561 85.7913 11.6312V18H82.9403V11.1484C82.9403 10.5506 82.833 10.0295 82.6184 9.58497C82.4038 9.14046 82.0743 8.79558 81.6298 8.55033C81.1853 8.30509 80.6105 8.18246 79.9054 8.18246C79.3842 8.18246 78.9014 8.2821 78.4569 8.48136C78.0124 8.66529 77.6215 8.9182 77.2843 9.24009C76.9624 9.54665 76.7095 9.88386 76.5256 10.2517C76.357 10.6043 76.2727 10.9645 76.2727 11.3324V18H73.4217ZM104.387 18.2299C102.9 18.2299 101.574 17.9617 100.409 17.4252C99.2597 16.8887 98.363 16.153 97.7192 15.218C97.0755 14.283 96.7536 13.2254 96.7536 12.0451C96.7536 11.0488 96.9452 10.1598 97.3284 9.37804C97.7116 8.59632 98.2327 7.92955 98.8918 7.37775C99.5663 6.81062 100.356 6.37377 101.26 6.06721C102.164 5.76065 103.115 5.60737 104.111 5.60737C105.061 5.60737 105.95 5.76065 106.778 6.06721C107.606 6.35844 108.326 6.7723 108.939 7.30877C109.568 7.82992 110.051 8.45837 110.388 9.19411C110.725 9.91452 110.886 10.7116 110.871 11.5853L110.848 12.7119H98.9608L98.432 10.7116H108.479L108.112 11.0335V10.5276C108.035 10.0371 107.805 9.61562 107.422 9.26308C107.039 8.89521 106.556 8.61165 105.973 8.41238C105.406 8.19779 104.785 8.0905 104.111 8.0905C103.222 8.0905 102.425 8.22078 101.72 8.48136C101.03 8.74193 100.486 9.14812 100.087 9.69993C99.6889 10.2517 99.4896 10.9645 99.4896 11.8382C99.4896 12.6046 99.7119 13.2867 100.156 13.8845C100.616 14.4669 101.245 14.9191 102.042 15.241C102.839 15.5629 103.774 15.7238 104.847 15.7238C105.828 15.7238 106.655 15.5935 107.33 15.3329C108.004 15.0724 108.579 14.7735 109.054 14.4363L110.342 16.4136C109.867 16.7661 109.307 17.0803 108.663 17.3562C108.035 17.6168 107.353 17.8314 106.617 18C105.897 18.1533 105.153 18.2299 104.387 18.2299Z" fill="black"/>
</svg>
