<svg width="44" height="44" viewBox="0 0 44 44" fill="none" xmlns="http://www.w3.org/2000/svg">
<path d="M14.0001 26.5098C12.9401 25.5998 10.9402 23.1706 10.5002 19.5106C9.8002 13.7106 14.5302 7.30009 21.5002 7.01009C28.0202 6.74009 32.9601 11.9298 33.5001 17.5098C33.9501 22.1498 31.2402 26.1201 30.5002 27.0101" stroke="#151515" stroke-width="1.5" stroke-miterlimit="10"/>
<path fill-rule="evenodd" clip-rule="evenodd" d="M26.371 28.9675C25.3226 28.4433 23.9516 27.4756 23.9516 26.6288C23.9516 26.1852 24.1129 25.903 24.2742 25.8223C26.2903 24.6933 26.9758 20.9836 27.0968 20.9836C27.7823 20.9836 28.2661 19.2497 28.2661 18.1207C28.2661 17.1933 27.9839 17.2336 27.5 16.9514V16.8304C27.5 13.8062 25.121 11.5078 22.1371 11.5078C19.1935 11.5078 16.6532 13.9272 16.6532 16.911V17.032C16.1694 17.3143 15.9677 17.4756 15.9677 18.3627C15.9677 19.532 16.371 21.1449 17.0565 21.1449C17.1774 21.1449 18.0645 24.6933 20 25.903C20.121 25.9836 20.3226 26.1852 20.3226 26.5885C20.3226 27.5562 19.0323 28.403 17.9435 28.9675C16.6129 29.653 10 30.2175 10 36.5078H34.1935C34.1935 30.2175 28.0242 29.8143 26.371 28.9675Z" stroke="#151515" stroke-width="1.5"/>
<path d="M14.7931 21.6758C14.5111 23.3345 14.2201 24.9909 13.9358 26.6587C12.3101 26.2111 10.667 25.6382 9.05033 25.193" stroke="#151515" stroke-width="1.405" stroke-miterlimit="10"/>
</svg>
