<svg width="44" height="44" viewBox="0 0 44 44" fill="none" xmlns="http://www.w3.org/2000/svg">
<path d="M14.9602 9.174C15.6921 8.44527 16.6829 8.03615 17.7157 8.03615C18.7486 8.03615 19.7394 8.44527 20.4713 9.174L21.0499 9.72366L21.6285 9.14507C21.9912 8.78206 22.4219 8.49408 22.8959 8.29761C23.37 8.10113 23.8781 8 24.3913 8C24.9044 8 25.4125 8.10113 25.8866 8.29761C26.3606 8.49408 26.7913 8.78206 27.154 9.14507C28.6584 10.6928 28.7452 13.282 26.8213 15.2492L21.0354 21.0351L15.2495 15.2492C13.3257 13.282 13.4125 10.6928 14.9602 9.174Z" stroke="#FF589E" stroke-width="1.52778" stroke-linecap="round" stroke-linejoin="round"/>
<path d="M26.8213 15.2523C28.7886 13.3285 31.3778 13.4152 32.8966 14.963C33.6253 15.6949 34.0344 16.6857 34.0344 17.7185C34.0344 18.7514 33.6253 19.7421 32.8966 20.4741L32.3469 21.0527L32.9255 21.6313C33.2885 21.994 33.5765 22.4246 33.773 22.8987C33.9694 23.3728 34.0706 23.8809 34.0706 24.394C34.0706 24.9072 33.9694 25.4153 33.773 25.8894C33.5765 26.3634 33.2885 26.7941 32.9255 27.1568C31.3778 28.6612 28.7886 28.7479 26.8213 26.8241" stroke="#FF589E" stroke-width="1.52778" stroke-linecap="round" stroke-linejoin="round"/>
<path d="M15.2493 26.8184C13.2821 28.7422 10.6929 28.6554 9.17405 27.1077C8.44532 26.3757 8.0362 25.385 8.0362 24.3521C8.0362 23.3193 8.44532 22.3285 9.17405 21.5966L9.72371 21.018L9.14512 20.4394C8.78211 20.0767 8.49413 19.646 8.29766 19.172C8.10118 18.6979 8.00005 18.1898 8.00005 17.6766C8.00005 17.1635 8.10118 16.6553 8.29766 16.1813C8.49413 15.7072 8.78211 15.2765 9.14512 14.9138C10.6929 13.4095 13.2821 13.3227 15.2493 15.2465" stroke="#FF589E" stroke-width="1.52778" stroke-linecap="round" stroke-linejoin="round"/>
<path d="M27.1104 32.8975C26.3785 33.6262 25.3877 34.0353 24.3548 34.0353C23.322 34.0353 22.3312 33.6262 21.5993 32.8975L21.0207 32.3478L20.4421 32.9264C20.0794 33.2894 19.6487 33.5774 19.1747 33.7739C18.7006 33.9703 18.1925 34.0715 17.6793 34.0715C17.1662 34.0715 16.658 33.9703 16.184 33.7739C15.7099 33.5774 15.2793 33.2894 14.9166 32.9264C13.3833 31.3931 13.2965 28.8039 15.2203 26.8367L21.0062 21.0508L26.7922 26.8367C28.716 28.8039 28.6292 31.3931 27.0815 32.9119L27.1104 32.8975Z" stroke="#FF589E" stroke-width="1.52778" stroke-linecap="round" stroke-linejoin="round"/>
<path d="M28.2678 28.2656L35.5002 35.498" stroke="#FF589E" stroke-width="1.52778" stroke-linecap="round" stroke-linejoin="round"/>
</svg>
