<svg width="44" height="44" viewBox="0 0 44 44" fill="none" xmlns="http://www.w3.org/2000/svg">
<path d="M22.4962 8.00869C23.5766 7.99799 26.7004 8.09427 29.3962 10.1482C32.5734 12.5659 33.8892 16.738 32.8408 20.8459C33.1511 21.2096 34.0925 22.4078 33.9855 24.0552C33.8785 25.8845 32.5306 27.5426 30.5408 28.3343C30.2627 29.3078 29.6636 30.998 28.2408 32.6133C27.3315 33.651 25.5129 35.7157 22.7636 35.8226C19.7148 35.9403 17.5752 33.544 16.7515 32.6133C15.3287 31.0194 14.719 29.3292 14.4515 28.3343C12.4618 27.5426 11.1139 25.8845 11.0069 24.0552C10.9106 22.4078 11.852 21.2096 12.1515 20.8459C11.1032 16.738 12.4297 12.5659 15.5962 10.1482C18.4097 7.99799 21.5334 7.9659 22.4962 8.00869Z" stroke="#151515" stroke-width="1.60465" stroke-miterlimit="10"/>
<path d="M17.0513 21.9141H27.6206" stroke="#151515" stroke-width="1.60465" stroke-miterlimit="10"/>
<path d="M22.3357 16.6289V27.1875" stroke="#151515" stroke-width="1.60465" stroke-miterlimit="10"/>
</svg>
